<svg width="300" height="300" viewBox="0 0 300 300" fill="none" xmlns="http://www.w3.org/2000/svg">
<g clip-path="url(#clip0_34_2)">
<path d="M50.75 237.5L36.5 71.5L96 67.75L88 143.25L146 67.75L168.25 84.75L115.5 140L177.25 233.75L124.25 237.5L90.5 166.25L85 172L78.25 235L50.75 237.5ZM211.916 240C206.749 240 201.416 239.25 195.916 237.75C190.583 236.25 185.333 234.167 180.166 231.5L184.666 218C187.833 219 190.833 219.833 193.666 220.5C196.499 221.167 199.249 221.5 201.916 221.5C208.749 221.5 213.416 219.25 215.916 214.75C218.583 210.25 219.916 205 219.916 199C219.916 198.667 219.833 197.917 219.666 196.75C219.666 195.583 219.499 193 219.166 189C218.833 185 218.249 178.5 217.416 169.5C216.749 160.5 215.749 148.167 214.416 132.5C213.083 116.667 211.333 96.3333 209.166 71.5L268.666 67.75L254.666 198.75C253.499 209.583 250.833 218 246.666 224C242.666 230 237.583 234.167 231.416 236.5C225.416 238.833 218.916 240 211.916 240Z" fill="white"/>
</g>
<defs>
<clipPath id="clip0_34_2">
<rect width="300" height="300" fill="white"/>
</clipPath>
</defs>
</svg>
